<svg width="246" height="359" xmlns="http://www.w3.org/2000/svg" xmlns:xlink="http://www.w3.org/1999/xlink" overflow="hidden"><defs><clipPath id="clip0"><rect x="0" y="0" width="246" height="359"/></clipPath></defs><g clip-path="url(#clip0)"><rect x="0" y="0" width="245.667" height="358.514" fill="#FFFFFF" transform="scale(1.00136 1)"/><rect x="0" y="0" width="239.675" height="72.9011" stroke="#000000" stroke-linejoin="round" stroke-miterlimit="10" fill="none" transform="matrix(1.00136 0 -0 1 3.49997 2.49659)"/><text font-family="Calibri,Calibri_MSFontService,sans-serif" font-weight="400" font-size="32" transform="matrix(1 0 0 0.998645 15.8079 37)">Web <tspan x="67.418" y="0">Application</tspan><tspan font-size="20" x="11.5957" y="27.0366">(e.g. Instagram, Spotify)</tspan></text><rect x="0" y="0" width="239.675" height="74.8984" stroke="#000000" stroke-linejoin="round" stroke-miterlimit="10" fill="none" transform="matrix(1.00136 0 -0 1 3.49997 142.307)"/><text font-family="Calibri,Calibri_MSFontService,sans-serif" font-weight="400" font-size="32" transform="matrix(1 0 0 0.998645 51.6498 177)">ORM Layer<tspan font-size="20" x="-22.17" y="27.0366">(e.g. Django, </tspan><tspan font-size="20" x="83.1994" y="27.0366">Sequelize</tspan><tspan font-size="20" x="158.862" y="27.0366">)</tspan></text><rect x="0" y="0" width="239.675" height="74.8984" stroke="#000000" stroke-linejoin="round" stroke-miterlimit="10" fill="none" transform="matrix(1.00136 0 -0 1 3.49997 282.117)"/><text font-family="Calibri,Calibri_MSFontService,sans-serif" font-weight="400" font-size="32" transform="matrix(1 0 0 0.998645 19.029 316)">Database Driver<tspan font-size="20" x="0.514029" y="27.0366">(e.g. </tspan><tspan font-size="20" x="40.4481" y="27.0366">MySQLdb</tspan><tspan font-size="20" x="117.72" y="27.0366">, Psycopg2)</tspan></text><path d="M0.333333-5.40472e-07 0.333427 58.0835-0.333239 58.0835-0.333333 5.40472e-07ZM4.00009 56.7501 0.000104987 64.7501-3.99991 56.7501Z" transform="matrix(1.00136 0 -0 1 116.5 218.204)"/><path d="M-0.333333 5.40472e-07-0.333427-58.0835 0.333239-58.0835 0.333333-5.40472e-07ZM-4.00009-56.7501-0.000104987-64.7501 3.99991-56.7501Z" transform="matrix(-1.00136 -0 -0 1 130.5 282.954)"/><path d="M0.333333-5.40472e-07 0.333427 58.0835-0.333239 58.0835-0.333333 5.40472e-07ZM4.00009 56.7501 0.000104987 64.7501-3.99991 56.7501Z" transform="matrix(1.00136 0 -0 1 116.5 77.395)"/><path d="M-0.333333 5.40472e-07-0.333427-58.0835 0.333239-58.0835 0.333333-5.40472e-07ZM-4.00009-56.7501-0.000104987-64.7501 3.99991-56.7501Z" transform="matrix(-1.00136 -0 -0 1 130.5 142.145)"/></g></svg>